<?xml version="1.0" encoding="utf-8"?>
<!-- Generator: Adobe Illustrator 25.2.1, SVG Export Plug-In . SVG Version: 6.00 Build 0)  -->
<svg version="1.1" id="Layer_1" xmlns="http://www.w3.org/2000/svg" xmlns:xlink="http://www.w3.org/1999/xlink" x="0px" y="0px"
	 viewBox="0 0 150 176.5" style="enable-background:new 0 0 685.6 176.5;" xml:space="preserve">
<style type="text/css">
	.st0{fill:#3B444D;}
	.st1{fill:#00A5E3;}
	.st2{fill:url(#SVGID_1_);}
	.st3{fill:url(#SVGID_2_);}
	.st4{fill:url(#SVGID_3_);}
	.st5{fill:url(#SVGID_4_);}
	.st6{fill:url(#SVGID_5_);}
	.st7{fill:url(#SVGID_6_);}
	.st8{fill:url(#SVGID_7_);}
</style>
<g>
	<g>
		
			<linearGradient id="SVGID_1_" gradientUnits="userSpaceOnUse" x1="40.0487" y1="-1215.4519" x2="64.1204" y2="-1215.4519" gradientTransform="matrix(1 0 0 -1 0 -1169.0519)">
			<stop  offset="0" style="stop-color:#4A545F"/>
			<stop  offset="1" style="stop-color:#1D3B46"/>
		</linearGradient>
		<path class="st2" d="M43.5,42.7c-0.1,0.3-0.1,0.5-0.2,0.8c-1.2,5.3-2.5,11.4-3.3,17c6.7-3.9,13.7-7.9,20.5-12
			c0.5-1.8,0.9-3.6,1.4-5.6c0.9-3.9,1.7-7.5,2.3-10.6C57.3,35.7,50.3,39.2,43.5,42.7z"/>
	</g>
	
		<linearGradient id="SVGID_2_" gradientUnits="userSpaceOnUse" x1="5.3155" y1="-1250.6519" x2="20.7141" y2="-1250.6519" gradientTransform="matrix(1 0 0 -1 0 -1169.0519)">
		<stop  offset="0" style="stop-color:#3A73A6"/>
		<stop  offset="0.46" style="stop-color:#009CD9"/>
		<stop  offset="0.6" style="stop-color:#00A8D7"/>
		<stop  offset="0.9" style="stop-color:#09ADD8"/>
	</linearGradient>
	<path class="st3" d="M18.6,61.4c-3.8,4.4-6.2,9.2-7.4,14.6c-2.6,11.2,2.1,20.5,9.5,28.8C10.5,96.3,3.3,87.1,5.8,76.4
		c1.5-6.6,6.5-12.6,13.1-18L18.6,61.4z"/>
	<g>
		
			<linearGradient id="SVGID_3_" gradientUnits="userSpaceOnUse" x1="85.6141" y1="-1185.6019" x2="103.3141" y2="-1185.6019" gradientTransform="matrix(1 0 0 -1 0 -1169.0519)">
			<stop  offset="0" style="stop-color:#466470"/>
			<stop  offset="1" style="stop-color:#14313B"/>
		</linearGradient>
		<path class="st4" d="M97.3,9.9c-3.2,3.5-7.2,6.7-11.7,9.8c0.5,3.2,0.6,6.7,0.3,10.4c8.5-7.8,15-16.6,17.3-26.8l0.1-0.3L97.3,9.9z"
			/>
	</g>
	<g>
		<path class="st0" d="M11.9,79.5c2.7-2.4,5.7-4.8,9-7.1c-1-2.8-1.5-5.8-1.7-9.1c-3.3,4-5.6,8.4-6.7,13.2
			C12.1,77.6,12,78.6,11.9,79.5z"/>
	</g>
	<g>
		
			<linearGradient id="SVGID_4_" gradientUnits="userSpaceOnUse" x1="0" y1="-1295.5519" x2="67.84" y2="-1295.5519" gradientTransform="matrix(1 0 0 -1 0 -1169.0519)">
			<stop  offset="0" style="stop-color:#103646"/>
			<stop  offset="1" style="stop-color:#555F6B"/>
		</linearGradient>
		<path class="st5" d="M67.3,158.9C74.9,126-2.5,109.4,5.1,76.5L0.5,96.2c-7.4,32.2,67.6,44.5,63.6,76l-0.9,4.3L67.3,158.9z"/>
	</g>
	
		<linearGradient id="SVGID_5_" gradientUnits="userSpaceOnUse" x1="52.5569" y1="-1255.7518" x2="52.5569" y2="-1169.0519" gradientTransform="matrix(1 0 0 -1 0 -1169.0519)">
		<stop  offset="0" style="stop-color:#3A73A6"/>
		<stop  offset="0.46" style="stop-color:#009CD9"/>
		<stop  offset="0.6" style="stop-color:#00A8D7"/>
		<stop  offset="0.9" style="stop-color:#09ADD8"/>
	</linearGradient>
	<path class="st6" d="M62.6,0C77,0,88.9,13.2,83.2,37.8l-1.7,7.4C73.6,79,53,86.7,42.4,86.7c-16.7,0-25.7-15.7-20.5-38.1L24.4,38
		C30.3,12.8,48.2,0,62.6,0z M44.3,78c7.9,0,13-9.3,19-34.9c5.9-25.3,5.2-34.9-2.6-34.9c-7.9,0-12.9,9.3-18.8,34.9
		C36,68.4,36.7,78,44.3,78z"/>
	
		<linearGradient id="SVGID_6_" gradientUnits="userSpaceOnUse" x1="47.9641" y1="-1298.7518" x2="47.9641" y2="-1259.3519" gradientTransform="matrix(1 0 0 -1 0 -1169.0519)">
		<stop  offset="0.46" style="stop-color:#009CD9"/>
		<stop  offset="0.6" style="stop-color:#00A8D7"/>
		<stop  offset="0.9" style="stop-color:#09ADD8"/>
	</linearGradient>
	<path class="st7" d="M45.1,102l-4.5,17.8c4.5,3.2,9,6.5,13,9.9l9.9-39.4h-2.8l-28.3,10.5l0.5,5.7L45.1,102z"/>
	
		<linearGradient id="SVGID_7_" gradientUnits="userSpaceOnUse" x1="35.2641" y1="-1344.4519" x2="35.2641" y2="-1307.9041" gradientTransform="matrix(1 0 0 -1 0 -1169.0519)">
		<stop  offset="0" style="stop-color:#3B74A7"/>
		<stop  offset="0.9" style="stop-color:#09ADD8"/>
	</linearGradient>
	<path class="st8" d="M49.1,148c-4-3.2-8.6-6.2-13.2-9.2L28.3,169h-10l-1.6,6.4h35.5l1.6-6.4h-10L49.1,148z"/>
</g>
</svg>
