<svg height="-2854" viewBox="129.28 350.63 91.29 91.29" width="2500" xmlns="http://www.w3.org/2000/svg">
<path d="m129.45 351.24h79.85v89.08h-79.85z" fill="#264980"/>
<g fill="#fff">
<path d="m129.28 357.06c27.75 28.78 55.34 40.43 80.02 49.2v-6.52c-15.77-2.08-51.41-19.04-80.02-42.68zm0 20.04c27.75 28.78 55.34 40.43 80.02 49.2v-6.52c-15.77-2.08-51.41-19.04-80.02-42.68zm0 20.04c28.61 23.64 64.25 40.61 80.02 42.67v.5h-15.87c-20.38-8.37-42.21-20.41-64.15-43.17z"/>
<path d="m129.28 434.51c27.75-28.78 55.34-40.43 80.02-49.2v6.52c-15.77 2.07-51.41 19.03-80.02 42.68zm0-20.05c27.75-28.78 55.34-40.43 80.02-49.19v6.52c-15.77 2.07-51.41 19.03-80.02 42.67zm0-20.04c28.61-23.64 64.25-40.6 80.02-42.67v-.5h-15.87c-20.38 8.37-42.21 20.41-64.15 43.17z"/>
</g></svg>